<svg width="24" height="24" viewBox="0 0 80 80" xmlns="http://www.w3.org/2000/svg">
    <!-- Apply the gradient to the background -->
    <rect width="100%" height="100%" fill="none" />

    <!-- Your existing SVG paths -->
    <path fill="#bc90c6" fill-rule="evenodd"
        d="M41 37.59V25h-2v12.59l-8.9-8.9-1.41 1.41 8.9 8.9H25v2h12.59l-8.9 8.9 1.41 1.41 8.9-8.9V55h2V42.41l8.9 8.9 1.41-1.41-8.9-8.9H55v-2H42.41l8.9-8.9-1.41-1.41-8.9 8.9zM1 1h2v2H1V1zm0 4h2v2H1V5zm0 4h2v2H1V9zm0 4h2v2H1v-2zM40 63a23 23 0 1 1 0-46 23 23 0 0 1 0 46zm0-2a21 21 0 1 0 0-42 21 21 0 0 0 0 42z" />
</svg>